<svg width="240" height="209" viewBox="0 0 240 209" fill="none" xmlns="http://www.w3.org/2000/svg">
<g clip-path="url(#clip0_98_2)">
<mask id="mask0_98_2" style="mask-type:luminance" maskUnits="userSpaceOnUse" x="0" y="0" width="240" height="209">
<path d="M240 0H0V209H240V0Z" fill="white"/>
</mask>
<g mask="url(#mask0_98_2)">
<path d="M239.999 0.393433C235.012 22.1586 226.676 46.3389 207.584 73.9213C156.556 147.64 43.6337 106.981 1.76978 208.999H239.999V0.393433Z" fill="#C6F4CC"/>
<path d="M91.466 113.461C91.6686 98.4015 97.4286 84.0322 107.501 73.4591C117.573 62.8861 131.148 56.9588 145.291 56.9588C159.434 56.9588 173.01 62.8861 183.082 73.4591C193.154 84.0322 198.914 98.4015 199.117 113.461H204.964C204.964 96.6033 198.675 80.4362 187.481 68.5157C176.288 56.5956 161.105 49.8989 145.275 49.8989C129.444 49.8989 114.262 56.5956 103.068 68.5157C91.874 80.4362 85.5852 96.6033 85.5852 113.461H91.466Z" fill="#3D2E2C"/>
<path d="M145.32 47.3207C132.2 47.3018 119.404 51.6522 108.721 59.7625C108.05 60.2843 107.489 60.9495 107.073 61.7157C106.657 62.4819 106.396 63.3321 106.307 64.2119C106.217 65.0917 106.301 65.9813 106.553 66.8248C106.805 67.6679 107.22 68.4455 107.771 69.1084L107.914 69.2732C108.893 70.4464 110.246 71.1901 111.711 71.3601C113.176 71.5296 114.647 71.1132 115.84 70.1913C124.46 63.6973 134.76 60.2101 145.32 60.2101C155.879 60.2101 166.179 63.6973 174.8 70.1913C175.993 71.1105 177.464 71.5253 178.928 71.3557C180.392 71.1862 181.745 70.444 182.725 69.2732L182.858 69.0966C183.41 68.4357 183.826 67.6592 184.079 66.8165C184.332 65.9742 184.416 65.0846 184.326 64.2052C184.237 63.3258 183.975 62.476 183.559 61.711C183.142 60.9456 182.579 60.2819 181.907 59.7625C171.229 51.6522 158.436 47.3018 145.32 47.3207Z" fill="#6B514C"/>
<path d="M202.998 88.5415H189.844C186.791 88.5415 184.317 91.1765 184.317 94.427V132.482C184.317 135.732 186.791 138.367 189.844 138.367H202.998C206.05 138.367 208.524 135.732 208.524 132.482V94.427C208.524 91.1765 206.05 88.5415 202.998 88.5415Z" fill="#543F3D"/>
<path d="M101.304 88.5415H88.1497C85.0974 88.5415 82.623 91.1765 82.623 94.427V132.482C82.623 135.732 85.0974 138.367 88.1497 138.367H101.304C104.356 138.367 106.83 135.732 106.83 132.482V94.427C106.83 91.1765 104.356 88.5415 101.304 88.5415Z" fill="#543F3D"/>
<path d="M158.528 151.268H173.13C173.13 151.268 173.196 164.734 184.316 169.407C184.316 169.407 163.391 172.514 158.528 151.268Z" fill="#00B14F"/>
<path d="M166.122 75.1942H124.517C109.639 75.1942 97.5791 88.0371 97.5791 103.879V125.385C97.5791 141.227 109.639 154.07 124.517 154.07H166.122C181 154.07 193.06 141.227 193.06 125.385V103.879C193.06 88.0371 181 75.1942 166.122 75.1942Z" fill="#00B14F"/>
<path d="M203.958 118.087C203.958 117.447 203.719 116.833 203.294 116.38C202.869 115.928 202.293 115.674 201.692 115.674C201.091 115.674 200.515 115.928 200.09 116.38C199.664 116.833 199.426 117.447 199.426 118.087C199.426 118.087 199.426 118.157 199.426 118.193C199.426 133.012 185.653 145.018 168.664 145.018V148.973C188.162 148.973 203.958 135.189 203.958 118.181V118.087Z" fill="#8A6860"/>
<path d="M168.488 148.972C171.718 148.972 174.336 146.187 174.336 142.751C174.336 139.315 171.718 136.531 168.488 136.531H159.734C156.504 136.531 153.886 139.315 153.886 142.751C153.886 146.187 156.504 148.972 159.734 148.972H168.488Z" fill="#543F3D"/>
<path d="M145.573 123.206C149.48 123.206 152.647 119.833 152.647 115.672C152.647 111.512 149.48 108.139 145.573 108.139C141.666 108.139 138.499 111.512 138.499 115.672C138.499 119.833 141.666 123.206 145.573 123.206Z" fill="white"/>
<path d="M120.151 123.206C124.058 123.206 127.225 119.833 127.225 115.672C127.225 111.512 124.058 108.139 120.151 108.139C116.244 108.139 113.076 111.512 113.076 115.672C113.076 119.833 116.244 123.206 120.151 123.206Z" fill="white"/>
<path d="M170.996 123.206C174.904 123.206 178.071 119.833 178.071 115.672C178.071 111.512 174.904 108.139 170.996 108.139C167.09 108.139 163.922 111.512 163.922 115.672C163.922 119.833 167.09 123.206 170.996 123.206Z" fill="white"/>
</g>
</g>
<defs>
<clipPath id="clip0_98_2">
<rect width="240" height="209" fill="white"/>
</clipPath>
</defs>
</svg>
