<svg width="402" height="338" viewBox="0 0 402 338" fill="none" xmlns="http://www.w3.org/2000/svg">
<mask id="mask0_98_60" style="mask-type:alpha" maskUnits="userSpaceOnUse" x="0" y="0" width="402" height="338">
<path d="M402 0.00402832H0V337.532H402V0.00402832Z" fill="#C4C4C4"/>
</mask>
<g mask="url(#mask0_98_60)">
<path d="M408.298 390.956L362.091 246.067C356.79 231.641 343.846 213.334 316.727 206.069C316.626 206.029 269.78 194.046 265.299 187.888L263.673 189.366C252.434 199.591 237.748 204.976 222.7 204.389L220.552 204.305C212.45 203.989 204.501 201.95 197.216 198.319C189.931 194.687 183.469 189.543 178.246 183.216C174.184 186.268 166.925 189.751 162.706 191.774C141.515 201.933 120.245 202.845 102.059 221.673C91.6935 232.404 86.0426 251.799 83.1321 264.126L55.8146 392.013C55.6045 392.951 56.8988 394.405 57.3883 395.226C57.8778 396.046 58.05 396.594 58.962 396.834L95.1566 387.193C95.5854 387.306 96.0316 387.33 96.4694 387.262C96.9073 387.195 97.327 387.039 97.7042 386.803C98.0814 386.567 98.4081 386.255 98.6646 385.887C98.9216 385.519 99.1029 385.103 99.1983 384.662L125.057 289.194L128.104 301.677C128.717 304.583 126.061 310.119 128.773 323.67C131.056 335.076 137.239 346.404 139.782 352.899C145.26 366.893 146.748 371.815 147.182 386.961C148.047 417.15 144.111 447.212 131.994 475.03C130.857 477.64 129.774 480.27 128.745 482.919H316.032L315.025 482.336C314.065 479.883 313.061 477.447 312.011 475.03C299.894 447.212 295.958 417.15 296.823 386.961C297.257 371.815 298.745 366.893 304.223 352.899C306.766 346.405 312.949 335.076 315.232 323.67C315.896 320.425 316.296 317.129 316.427 313.817C316.509 311.516 316.789 309.28 316.838 306.975C316.901 303.997 317.611 297.124 321.687 297.114C326.697 297.102 338.388 334.49 338.388 334.49L360.638 415.636L408.298 390.956Z" fill="#3CB95A"/>
<path d="M377.157 407.081C371.486 386.891 358.393 341.001 348.864 313.184C336.375 276.728 333.133 273.161 326.195 276.151C318.835 279.322 316.986 304.714 316.986 304.714C317.418 302.033 318.061 297.123 321.687 297.114C326.698 297.102 338.389 334.49 338.389 334.49L360.638 415.636L377.157 407.081Z" fill="#00804A"/>
<path d="M256.848 166.723C261.965 164.567 265.715 173.831 271.881 179.691C281.502 188.836 279.444 200.167 278.783 212.716C278.668 214.904 278.57 230.563 275.225 230.068C275.225 230.068 240.159 224.883 236.156 217.232L234.012 198.395L243.23 172.46L256.848 166.723Z" fill="#3CB95A"/>
<path d="M281.411 208.809C281.251 208.576 281.022 208.399 280.758 208.304C280.495 208.208 280.208 208.199 279.939 208.277C279.67 208.356 279.431 208.518 279.256 208.741C279.081 208.964 278.979 209.237 278.963 209.522L278.783 212.717C278.78 212.785 278.776 212.867 278.773 212.961C278.762 213.242 278.75 213.633 278.735 214.111C278.73 214.27 278.724 214.439 278.718 214.616C278.694 215.325 278.663 216.173 278.618 217.101C278.595 217.564 278.568 218.048 278.538 218.545C278.492 219.29 278.437 220.064 278.369 220.843C278.324 221.362 278.273 221.883 278.216 222.399C278.13 223.172 278.03 223.934 277.913 224.66C277.835 225.144 277.75 225.611 277.656 226.056C277.531 226.671 277.371 227.278 277.176 227.873C276.695 229.306 276.062 230.192 275.226 230.069L275.179 230.062L275.15 230.057C273.412 229.795 240.055 224.685 236.156 217.233L235.898 214.962C235.382 214.657 235.011 214.673 234.964 215.324C234.964 215.324 230.072 220.041 222.386 234.11C218.474 225.469 217.426 223.911 214.388 221.724C214.473 220.953 213.731 220.821 213.628 219.965C213.619 219.878 213.591 219.795 213.546 219.72C213.502 219.646 213.442 219.583 213.371 219.535C213.3 219.487 213.219 219.455 213.135 219.443C213.051 219.43 212.965 219.437 212.883 219.462C212.17 219.675 211.432 219.789 210.689 219.802C201.371 220.072 183.999 230.488 176.51 235.259C176.06 235.546 175.555 235.73 175.028 235.799C174.501 235.867 173.966 235.819 173.46 235.656C172.953 235.494 172.488 235.221 172.095 234.857C171.701 234.493 171.39 234.046 171.182 233.548C168.527 227.175 166.235 220.483 166.097 213.728C166.09 213.455 165.995 213.191 165.827 212.978C165.66 212.765 165.429 212.613 165.168 212.546C164.909 212.479 164.634 212.501 164.388 212.607C164.141 212.714 163.935 212.899 163.801 213.136C163.756 213.216 163.718 213.3 163.689 213.387C160.369 223.471 163.703 233.681 167.698 243.16C167.877 243.582 168.142 243.959 168.478 244.266C168.813 244.572 169.209 244.802 169.639 244.938C170.069 245.073 170.523 245.112 170.969 245.052C171.416 244.992 171.844 244.834 172.224 244.589C178.308 240.688 199.843 229.589 206.182 226.34C206.724 226.062 207.339 225.968 207.936 226.072C208.534 226.176 209.083 226.471 209.505 226.915C211.779 229.295 216.145 234.673 219.833 243.97C219.985 244.358 220.051 244.776 220.026 245.193C220.002 245.611 219.887 246.017 219.691 246.384C219.223 247.268 218.742 248.178 218.249 249.117C209.711 265.362 209.723 281.813 209.731 292.699L209.732 294.059C209.731 294.554 209.855 295.041 210.092 295.473C210.33 295.905 210.672 296.267 211.087 296.524C211.594 296.882 212.187 297.091 212.802 297.131C213.416 297.171 214.03 297.039 214.577 296.749C215.124 296.46 215.583 296.024 215.906 295.488C216.228 294.953 216.401 294.337 216.407 293.709L216.406 292.694C216.398 281.88 216.387 267.071 224.132 252.336C230.527 240.168 234.725 232.785 237.26 228.531C237.619 227.94 238.187 227.512 238.847 227.336C239.507 227.159 240.208 227.249 240.806 227.584C250.939 233.369 276.08 237.088 276.08 237.088C283.742 239.118 282.895 220.417 283.01 218.229C283.265 213.404 282.722 210.759 281.411 208.809Z" fill="#00804A"/>
<path d="M213.236 199.295C213.236 199.295 200.596 181.397 200.077 180.663C198.25 178.075 197.826 169.892 195.177 168.22C194.132 167.683 193.001 167.342 191.838 167.21L190.681 166.722C188.394 165.759 186.38 167.078 184.302 169.353C181.376 171.821 178.911 174.808 177.024 178.17C175.486 181.186 174.905 184.598 173.931 187.85C172.241 193.492 169.351 198.687 167.48 204.27C164.087 214.396 167.432 224.654 171.445 234.174C171.624 234.596 171.89 234.973 172.225 235.28C172.56 235.587 172.956 235.816 173.386 235.952C173.816 236.087 174.27 236.127 174.716 236.067C175.163 236.007 175.591 235.849 175.972 235.603C183.132 231.011 201.139 220.079 210.69 219.802C222.787 219.45 213.236 199.295 213.236 199.295Z" fill="#3CB95A"/>
<path d="M193.34 134.32C193.34 134.32 197.848 164.224 187.358 177.505C187.358 177.505 186.945 197.419 213.381 221.648C215.254 223.356 216.878 225.329 218.203 227.507L222.352 234.372C222.352 234.372 261.571 196.496 259.93 181.133C259.93 181.133 251.886 175.989 257.532 136.669L193.34 134.32Z" fill="#FDB47E"/>
<path d="M194.3 148.807C203.457 161.645 215.512 172.451 226.704 173.061C236.281 173.584 246.707 166.718 255.582 157.326C255.851 150.408 256.502 143.512 257.532 136.669L193.34 134.32C193.981 139.121 194.302 143.961 194.3 148.807Z" fill="#E48544"/>
<path d="M167.297 83.1094C167.298 82.0559 167.424 81.0064 167.675 79.9841C167.977 78.7438 168.55 77.5891 169.35 76.6054C169.87 75.9722 170.51 75.4526 171.232 75.0773C171.953 74.7019 172.741 74.4784 173.549 74.4197C175.101 74.3455 176.626 74.8466 177.844 75.8303C178.832 76.6318 179.631 77.6502 180.181 78.8101C180.673 79.8288 181 80.9233 181.148 82.0492C181.289 83.0916 181.315 84.1467 181.226 85.1946C181.112 86.2618 180.86 87.309 180.476 88.3084C179.828 89.8984 179.091 91.449 178.271 92.9535C177.63 94.1071 177.194 95.3671 176.985 96.6756C176.891 97.8702 177.218 99.0597 177.906 100.03C178.759 101.24 179.777 102.317 180.93 103.23L180.945 103.242C181.178 103.439 181.333 103.715 181.381 104.02C181.428 104.325 181.366 104.637 181.205 104.898C181.044 105.159 180.795 105.352 180.505 105.439C180.215 105.527 179.903 105.504 179.629 105.374C178.002 104.625 176.512 103.599 175.221 102.341C174.51 101.619 173.918 100.784 173.47 99.8687C172.993 98.889 172.713 97.8217 172.646 96.73C172.59 94.754 172.94 92.7879 173.672 90.9578C174.253 89.2992 174.891 87.8219 175.23 86.5307C175.388 85.9799 175.469 85.4099 175.473 84.8366C175.478 84.2437 175.421 83.6519 175.301 83.0719C175.17 82.2058 174.749 81.4125 174.109 80.8271C173.909 80.6745 173.83 80.7052 173.926 80.7072C174.029 80.7163 174.103 80.5921 173.957 80.7305C173.724 81.0143 173.55 81.3443 173.446 81.6991C173.264 82.2621 173.134 82.8409 173.058 83.4279L173.035 83.5801C172.926 84.3166 172.546 84.9833 171.974 85.4461C171.402 85.9086 170.679 86.1329 169.951 86.073C169.224 86.0135 168.545 85.6744 168.052 85.1244C167.56 84.5748 167.29 83.8541 167.297 83.1094Z" fill="#E48544"/>
<path d="M282.652 89.4849C282.638 88.8927 282.569 88.3029 282.448 87.7233C282.383 87.3587 282.245 87.0117 282.043 86.7038C281.913 86.5501 281.973 86.6821 282.077 86.6841C282.172 86.6928 282.096 86.6534 281.881 86.7831C281.184 87.2948 280.681 88.0368 280.459 88.8836C280.278 89.447 280.159 90.0289 280.102 90.6191C280.045 91.1892 280.066 91.7652 280.163 92.3298C280.365 93.6509 280.842 95.1901 281.244 96.9027C281.778 98.8026 281.917 100.796 281.652 102.754C281.47 103.832 281.079 104.862 280.501 105.784C279.959 106.645 279.282 107.409 278.499 108.049C277.083 109.157 275.493 110.013 273.796 110.579C273.509 110.677 273.198 110.666 272.919 110.547C272.64 110.428 272.413 110.209 272.28 109.932C272.147 109.655 272.118 109.337 272.198 109.04C272.277 108.743 272.46 108.484 272.712 108.314L272.729 108.304C273.972 107.523 275.099 106.564 276.075 105.456C276.862 104.567 277.313 103.42 277.346 102.222C277.276 100.898 276.977 99.5975 276.462 98.38C275.805 96.7939 275.237 95.1712 274.761 93.5189C274.485 92.4832 274.345 91.4143 274.345 90.3408C274.367 89.2893 274.505 88.2434 274.755 87.223C275.021 86.1195 275.462 85.0677 276.06 84.1088C276.729 83.0168 277.631 82.0922 278.698 81.4043C280.013 80.561 281.582 80.231 283.117 80.475C283.914 80.6225 284.674 80.9316 285.351 81.3846C286.029 81.8372 286.61 82.4242 287.061 83.111C287.752 84.177 288.199 85.3886 288.368 86.6549C288.509 87.6985 288.524 88.7559 288.412 89.8034C288.341 90.5446 287.996 91.231 287.449 91.7234C286.901 92.2159 286.19 92.478 285.46 92.4571C284.73 92.4366 284.035 92.1343 283.516 91.6111C282.995 91.0883 282.689 90.3834 282.658 89.639L282.652 89.4849Z" fill="#E48544"/>
<path d="M248.584 140.897C249.309 138.864 247.741 136.416 245.082 135.428C242.423 134.441 239.679 135.288 238.954 137.321C238.228 139.354 239.797 141.802 242.456 142.789C245.115 143.777 247.859 142.93 248.584 140.897Z" fill="#8A6860"/>
<path d="M252.837 142.661C248.4 142.54 244.059 141.321 240.186 139.109C240.041 139.033 239.912 138.928 239.808 138.801C239.703 138.674 239.624 138.527 239.575 138.369C239.525 138.21 239.508 138.043 239.522 137.878C239.536 137.712 239.583 137.551 239.658 137.404C239.733 137.257 239.837 137.126 239.962 137.02C240.087 136.914 240.231 136.833 240.387 136.785C240.542 136.735 240.706 136.718 240.868 136.733C241.03 136.749 241.187 136.796 241.332 136.874C247.946 140.407 253.994 141.069 259.304 138.846C269.472 134.589 273.812 121.087 273.855 120.951C273.959 120.637 274.179 120.378 274.468 120.229C274.758 120.08 275.093 120.052 275.402 120.153C275.71 120.254 275.968 120.474 276.12 120.767C276.271 121.059 276.303 121.401 276.21 121.718C276.023 122.317 271.493 136.46 260.256 141.174C257.903 142.163 255.382 142.668 252.837 142.661Z" fill="#8A6860"/>
<path d="M170.975 68.3805C170.975 33.0157 193.837 11.3581 203.328 11.3581C212.827 5.92782 224.023 3.99555 236.275 5.41584L236.32 5.35702L236.349 5.42487C275.273 9.39334 290.583 42.3307 286.141 81.7311C285.822 84.5989 275.879 136.377 273.129 147.846C272.961 148.548 272.577 149.176 272.031 149.636C271.486 150.096 270.809 150.364 270.103 150.4C261.511 150.845 232.61 152.198 221.196 150.875C209.828 149.557 183.613 141.854 175.675 139.471C175.002 139.27 174.41 138.855 173.985 138.286C173.56 137.717 173.325 137.024 173.314 136.309C173.117 124.56 170.655 71.2511 170.975 68.3805Z" fill="#3D2E2C"/>
<path d="M209.693 33.6408C198.998 34.4193 188.294 37.1457 188.01 42.5774L185.677 81.0238C185.677 81.0238 180.794 69.887 172.27 69.4221C169.976 69.2968 164.877 71.3102 164.43 79.8312C164.039 87.296 172.412 112.912 179.105 113.277C182.724 113.475 184.22 108.832 184.22 108.832C183.436 123.805 205.953 160.055 225.436 161.117C244.919 162.18 268.429 128.44 269.213 113.467C269.213 113.467 270.216 118.246 273.835 118.443C280.528 118.808 291.53 94.2486 291.921 86.7838C292.367 78.2625 287.507 75.7061 285.213 75.5811C276.689 75.1163 271.237 85.4986 271.237 85.4986L272.052 73.8464C272.052 73.8464 229.419 63.8738 209.775 33.6349" fill="#FDB47E"/>
<path d="M242.054 126.303C239.874 128.507 237.265 130.221 234.396 131.334C231.527 132.447 228.461 132.935 225.396 132.765C222.331 132.596 219.335 131.773 216.6 130.35C213.866 128.928 211.454 126.937 209.52 124.505" fill="white"/>
<path d="M226.538 134.058C226.135 134.058 225.732 134.047 225.329 134.024C222.093 133.833 218.931 132.958 216.044 131.455C213.157 129.953 210.607 127.854 208.555 125.294C208.355 125.032 208.263 124.701 208.301 124.372C208.338 124.042 208.502 123.74 208.755 123.533C209.009 123.325 209.333 123.228 209.656 123.262C209.98 123.296 210.277 123.459 210.484 123.716C212.309 126.009 214.585 127.887 217.165 129.229C219.745 130.57 222.571 131.346 225.463 131.506C228.354 131.666 231.247 131.206 233.953 130.156C236.66 129.107 239.121 127.491 241.179 125.412C241.293 125.292 241.429 125.196 241.58 125.13C241.731 125.064 241.893 125.029 242.057 125.028C242.221 125.026 242.384 125.058 242.535 125.121C242.687 125.184 242.825 125.278 242.941 125.396C243.057 125.514 243.149 125.655 243.211 125.81C243.274 125.964 243.305 126.13 243.304 126.297C243.303 126.465 243.269 126.63 243.205 126.784C243.14 126.938 243.046 127.077 242.929 127.194C238.556 131.582 232.672 134.047 226.538 134.058Z" fill="#E48544"/>
<path d="M259.929 85.6445C259.635 85.6449 259.351 85.5384 259.127 85.3437C259.081 85.3034 254.449 81.3274 249.455 81.0696C244.486 80.7873 239.429 84.2177 239.379 84.2524C239.108 84.4369 238.777 84.5047 238.457 84.4412C238.137 84.3777 237.855 84.1885 237.672 83.9137C237.488 83.6393 237.418 83.3022 237.477 82.9754C237.536 82.6485 237.719 82.3588 237.986 82.1687C238.218 82.0071 243.744 78.21 249.59 78.5511C255.428 78.8523 260.519 83.2391 260.733 83.4256C260.925 83.5932 261.062 83.8167 261.126 84.0663C261.189 84.3158 261.177 84.5792 261.089 84.8209C261.001 85.063 260.843 85.2715 260.636 85.4186C260.428 85.566 260.182 85.6449 259.929 85.6445Z" fill="#3D2E2C"/>
<path d="M217.433 83.2966C217.14 83.297 216.856 83.1906 216.632 82.9958C216.586 82.9556 211.953 78.9796 206.96 78.7217C201.966 78.4402 196.933 81.8698 196.883 81.9041C196.612 82.0886 196.28 82.1565 195.961 82.093C195.641 82.0295 195.359 81.8399 195.176 81.5655C194.992 81.2911 194.922 80.9536 194.981 80.6268C195.04 80.3003 195.223 80.0102 195.49 79.8205C195.722 79.6581 201.222 75.8555 207.095 76.2032C212.932 76.5045 218.024 80.8913 218.238 81.0778C218.43 81.2453 218.567 81.4689 218.631 81.7184C218.694 81.968 218.682 82.2314 218.594 82.473C218.506 82.7151 218.348 82.9237 218.141 83.0707C217.933 83.2182 217.686 83.297 217.433 83.2966Z" fill="#3D2E2C"/>
<path d="M225.205 82.7455C225.329 86.541 225.075 90.3396 224.447 94.0831C224.151 95.9396 223.804 97.7843 223.404 99.616C223.001 101.453 222.564 103.255 222.039 105.092L222.064 104.994C222.015 105.185 221.952 105.372 221.875 105.553L221.717 105.919L221.439 106.558C221.274 106.946 221.135 107.345 221.023 107.752C220.818 108.417 220.825 109.13 221.042 109.79C221.47 110.888 223.129 111.681 224.788 111.985C225.649 112.147 226.523 112.229 227.398 112.232C227.844 112.24 228.293 112.224 228.742 112.204C229.168 112.178 229.594 112.128 230.015 112.055C231.772 111.721 233.484 111.173 235.114 110.423C235.379 110.304 235.676 110.285 235.954 110.37C236.231 110.455 236.469 110.639 236.625 110.887C236.782 111.135 236.846 111.432 236.806 111.724C236.767 112.017 236.626 112.285 236.41 112.481L236.156 112.711C234.571 114.129 232.65 115.101 230.584 115.53C230.035 115.639 229.481 115.716 228.924 115.759C228.405 115.775 227.886 115.785 227.359 115.768C226.28 115.743 225.206 115.599 224.158 115.338C223.042 115.049 221.975 114.591 220.991 113.981C219.82 113.286 218.915 112.206 218.423 110.917C218.048 109.66 218.075 108.314 218.5 107.073C218.677 106.554 218.881 106.044 219.109 105.545L219.436 104.869L219.579 104.577C219.637 104.458 219.628 104.465 219.647 104.461L219.671 104.362C220.194 102.651 220.662 100.861 221.083 99.0881C221.494 97.3065 221.896 95.5197 222.161 93.7113C222.436 91.9052 222.643 90.0956 222.785 88.2824C222.888 86.4834 222.872 84.6789 222.736 82.8819C222.721 82.7171 222.738 82.5508 222.786 82.3923C222.834 82.2342 222.912 82.0871 223.016 81.9598C223.12 81.832 223.247 81.7268 223.391 81.6499C223.535 81.5726 223.692 81.5249 223.853 81.5099C224.015 81.4946 224.178 81.5119 224.333 81.5612C224.489 81.6101 224.633 81.6901 224.757 81.7962C224.882 81.9018 224.986 82.0319 225.061 82.1786C225.137 82.3253 225.183 82.4857 225.198 82.6505C225.2 82.6683 225.201 82.6856 225.202 82.7033L225.205 82.7455Z" fill="#E48544"/>
<path d="M262.669 75.8965C262.372 75.8969 262.085 75.7873 261.861 75.5886C253.884 68.5429 239.797 72.6979 239.656 72.7413C239.5 72.7882 239.337 72.804 239.175 72.787C239.014 72.7697 238.857 72.7204 238.715 72.6415C238.572 72.5627 238.446 72.4562 238.343 72.3277C238.241 72.1988 238.165 72.0509 238.118 71.8925C238.072 71.7336 238.057 71.5672 238.073 71.4024C238.09 71.2376 238.139 71.0779 238.216 70.9321C238.293 70.7866 238.397 70.6577 238.524 70.5532C238.649 70.4487 238.794 70.3706 238.95 70.3233C239.579 70.1321 254.472 65.7244 263.479 73.682C263.669 73.8503 263.805 74.0743 263.867 74.3234C263.93 74.5726 263.916 74.8352 263.828 75.0761C263.74 75.3169 263.581 75.5247 263.374 75.6714C263.167 75.818 262.921 75.8965 262.669 75.8965Z" fill="#3D2E2C"/>
<path d="M194.498 72.1279C194.234 72.1283 193.977 72.0424 193.765 71.8831C193.553 71.7242 193.396 71.4999 193.317 71.2432C193.239 70.9865 193.242 70.711 193.328 70.4567C193.414 70.2024 193.577 69.9828 193.794 69.8298C203.591 62.9134 217.928 68.9349 218.533 69.1947C218.834 69.3256 219.071 69.5724 219.194 69.8811C219.316 70.1898 219.314 70.5355 219.188 70.843C219.061 71.1502 218.821 71.3938 218.519 71.5208C218.217 71.6477 217.878 71.6477 217.576 71.5204C217.44 71.4624 203.876 65.7781 195.2 71.904C194.994 72.0498 194.749 72.1283 194.498 72.1279Z" fill="#3D2E2C"/>
<path d="M283.965 99.4961C283.907 99.4961 283.849 99.4937 283.79 99.4898C283.136 99.4433 282.526 99.1334 282.096 98.6284C281.666 98.1237 281.45 97.4649 281.495 96.7975L283.725 64.2724C284.624 50.9293 280.3 37.7672 271.7 27.6732C263.1 17.5793 250.927 11.378 237.851 10.4298L228.124 9.73601C221.647 9.27391 215.144 10.118 208.987 12.2201C202.829 14.3222 197.138 17.6411 192.237 21.9874C187.337 26.3337 183.324 31.6221 180.426 37.5507C177.529 43.4795 175.805 49.9326 175.352 56.5411L173.139 88.8264C173.093 89.4939 172.79 90.1157 172.295 90.5545C171.8 90.9933 171.154 91.2136 170.5 91.1671C169.846 91.1202 169.237 90.8103 168.807 90.3053C168.376 89.8006 168.16 89.1418 168.206 88.4744L170.419 56.189C171.426 41.5078 178.107 27.8355 188.993 18.1801C199.88 8.52479 214.079 3.67713 228.469 4.70361L238.195 5.39741C252.579 6.44033 265.969 13.2617 275.43 24.365C284.89 35.4683 289.647 49.9468 288.658 64.6244L286.429 97.1495C286.385 97.7862 286.106 98.382 285.649 98.8176C285.192 99.2529 284.59 99.4953 283.965 99.4961Z" fill="#543F3D"/>
<path d="M184.282 112.085C184.265 112.503 184.097 112.901 183.812 113.202C183.526 113.502 183.143 113.686 182.733 113.717L175.438 114.188C168.378 114.643 162.671 107.369 163.127 98.4944L164.142 78.7328C164.598 69.8582 171.019 63.232 177.993 64.4384L185.201 65.685C185.605 65.7596 185.967 65.9831 186.22 66.3127C186.473 66.6423 186.599 67.0551 186.573 67.473L184.282 112.085Z" fill="#6B514C"/>
<path d="M268.242 118.35C268.202 118.767 268.314 119.184 268.556 119.522C268.797 119.86 269.152 120.097 269.553 120.186L276.714 121.687C283.644 123.14 290.286 116.745 291.044 107.892L292.732 88.1791C293.49 79.3257 288.035 71.8531 280.963 72.0585L273.656 72.2706C273.246 72.2871 272.856 72.4567 272.56 72.7472C272.265 73.0378 272.084 73.4289 272.053 73.8464L268.242 118.35Z" fill="#6B514C"/>
<path d="M255.122 136.546C255.748 134.789 254.393 132.673 252.096 131.82C249.798 130.967 247.427 131.699 246.801 133.456C246.174 135.212 247.529 137.328 249.827 138.182C252.124 139.035 254.495 138.303 255.122 136.546Z" fill="#6B514C"/>
<path d="M258.796 138.07C254.963 137.966 251.212 136.913 247.865 135.001C247.74 134.935 247.629 134.844 247.538 134.735C247.448 134.625 247.38 134.498 247.337 134.361C247.295 134.224 247.279 134.08 247.292 133.937C247.304 133.794 247.344 133.655 247.409 133.528C247.475 133.4 247.564 133.288 247.672 133.196C247.78 133.104 247.905 133.034 248.039 132.992C248.173 132.949 248.314 132.934 248.455 132.948C248.595 132.961 248.731 133.002 248.855 133.07C254.571 136.123 259.796 136.695 264.384 134.773C273.169 131.094 276.919 119.425 276.956 119.308C277.046 119.037 277.236 118.813 277.486 118.684C277.736 118.555 278.026 118.531 278.293 118.618C278.56 118.705 278.782 118.896 278.913 119.149C279.043 119.402 279.071 119.697 278.991 119.97C278.829 120.489 274.915 132.712 265.206 136.786C263.173 137.64 260.995 138.077 258.796 138.07Z" fill="#6B514C"/>
<path d="M131.688 269.856C127.22 265.841 110.569 267.844 104.071 297.955C100.938 312.475 88.6521 348.387 76.2725 383.08L95.2382 387.108C95.6642 387.199 96.1084 387.218 96.5439 387.164C96.979 387.11 97.3968 386.984 97.772 386.794C98.1468 386.604 98.4715 386.353 98.7265 386.058C98.9815 385.762 99.1616 385.427 99.2558 385.073L123.589 293.703C123.679 293.397 123.892 293.126 124.193 292.932C124.495 292.739 124.867 292.636 125.249 292.64C125.631 292.644 126.001 292.755 126.297 292.954C126.592 293.153 126.797 293.429 126.878 293.737L127.087 294.539C127.087 294.539 136.155 273.87 131.688 269.856Z" fill="#00804A"/>
<path d="M289.665 264.127H269.123C265.869 264.127 263.23 266.818 263.23 270.139C263.23 273.459 265.869 276.151 269.123 276.151H289.665C292.919 276.151 295.557 273.459 295.557 270.139C295.557 266.818 292.919 264.127 289.665 264.127Z" fill="#00804A"/>
<path d="M80.1076 237.091L88.0105 341.856C88.167 344.266 87.9975 346.678 87.5021 349.025C85.8223 356.269 80.6318 370.032 65.0717 370.13C54.4593 370.196 47.8129 363.675 43.7712 357.204C39.8619 350.933 38.4138 343.441 39.4418 336.134L52.8118 235.723C52.8118 235.723 54.3312 219.639 67.6169 219.958C80.4462 220.212 80.1076 237.091 80.1076 237.091Z" fill="#FBB37E"/>
<path d="M111.918 169.865C108.032 167.14 105.405 171.984 105.405 171.984C105.405 171.984 101.624 178.914 100.341 181.201C99.0592 183.556 95.9926 190.079 94.2683 193.844C93.8218 194.852 92.4486 194.794 91.9808 193.858C89.0387 187.775 88.0416 180.206 89.2788 173.695C91.0113 164.7 92.585 147.057 93.3295 137.331C93.67 132.568 95.2429 126.927 89.8727 125.955C83.5849 124.787 83.3634 134.511 83.3634 134.511L79.0955 168.931C78.7968 171.548 75.0692 171.37 74.9104 168.756C73.8739 151.532 72.595 130.019 72.0121 124.458C71.5691 119.767 72.0933 113.864 66.6682 113.898C60.263 113.938 61.674 123.517 61.674 123.517L61.9073 169.173C61.929 171.184 59.0555 171.404 58.7729 169.461C56.6029 156.2 53.9465 140.26 53.0385 134.902C52.1308 129.544 51.812 124.249 46.8504 124.817C40.5177 125.527 42.7102 134.833 42.7102 134.833L48.4584 170.666C48.8781 173.211 45.2933 174.172 44.4822 171.696C41.3785 162.732 38.2069 153.566 36.8546 149.418C35.1647 144.266 34.1277 139.043 29.2402 140.415C23.0491 142.13 26.6091 150.958 26.6091 150.958L35.8488 183.282C35.8488 183.282 36.0449 189.315 37.2911 195.744C38.331 201.235 42.7449 216.493 49.8331 225.164C49.8331 225.164 62.5477 240.371 85.6052 226.817C89.9547 224.041 104.135 205.582 106.097 199.602C108.311 192.884 115.869 172.522 111.918 169.865Z" fill="#FBB37E"/>
<path fill-rule="evenodd" clip-rule="evenodd" d="M89.7565 196.575L89.7502 196.575L89.7214 196.576C89.695 196.578 89.654 196.58 89.5996 196.583C89.4904 196.59 89.3273 196.6 89.1164 196.617C88.6947 196.65 88.0827 196.708 87.3334 196.804C85.8322 196.997 83.7939 197.343 81.6341 197.956C77.2302 199.205 72.6857 201.457 70.8049 205.389C70.5239 205.976 69.8315 206.216 69.258 205.924C68.685 205.633 68.4481 204.92 68.7291 204.333C71.0749 199.429 76.4995 196.945 81.0082 195.667C83.3048 195.015 85.4582 194.651 87.0351 194.448C87.8249 194.346 88.4736 194.285 88.9273 194.249C89.1543 194.231 89.3328 194.22 89.4562 194.212C89.5176 194.209 89.5657 194.206 89.5988 194.205L89.6378 194.203L89.6489 194.202L89.6532 194.202C89.6536 194.202 89.654 194.202 89.7052 195.388L89.6532 194.202C90.2909 194.176 90.8316 194.687 90.86 195.342C90.8884 195.997 90.3942 196.549 89.7565 196.575Z" fill="#E48542"/>
<path fill-rule="evenodd" clip-rule="evenodd" d="M44.8943 174.573L44.0683 173.739C43.6221 174.205 43.63 174.957 44.086 175.417C44.542 175.878 45.2735 175.874 45.7196 175.408L45.7161 175.412C45.72 175.408 45.7299 175.399 45.7456 175.384C45.7772 175.355 45.8316 175.307 45.908 175.245C46.0613 175.122 46.3009 174.949 46.6214 174.772C47.2614 174.421 48.2199 174.059 49.4724 174.051C50.1109 174.047 50.6224 173.512 50.6154 172.857C50.6083 172.202 50.0853 171.674 49.4468 171.678C47.7533 171.689 46.429 172.181 45.5226 172.679C45.0705 172.928 44.7209 173.178 44.4789 173.373C44.3576 173.47 44.2622 173.554 44.194 173.617C44.1597 173.649 44.1321 173.676 44.1112 173.696C44.1006 173.706 44.0919 173.715 44.0848 173.722L44.0754 173.732L44.0714 173.736C44.071 173.736 44.0683 173.739 44.8943 174.573Z" fill="#E48542"/>
<path fill-rule="evenodd" clip-rule="evenodd" d="M58.3759 171.569L57.9124 170.478C57.3276 170.738 57.0604 171.437 57.3165 172.041C57.5711 172.641 58.249 172.919 58.8327 172.664L58.8374 172.662M58.8327 172.664L58.8374 172.662C58.8445 172.659 58.8583 172.654 58.88 172.645C58.9234 172.629 58.9951 172.603 59.0916 172.573C59.2855 172.513 59.576 172.437 59.9378 172.385C60.663 172.281 61.6479 172.276 62.714 172.662C63.3174 172.88 63.9759 172.554 64.1848 171.935C64.3937 171.315 64.0741 170.636 63.4707 170.418C61.9719 169.877 60.5987 169.887 59.6068 170.03C59.1098 170.101 58.7019 170.206 58.4122 170.296C58.2671 170.341 58.1509 170.383 58.0665 170.415C58.0244 170.431 57.9901 170.445 57.9645 170.456C57.9515 170.461 57.9408 170.466 57.9321 170.469L57.9207 170.474L57.9164 170.476C57.916 170.476 57.9124 170.478 58.3759 171.569L58.8374 172.662" fill="#E48542"/>
<path fill-rule="evenodd" clip-rule="evenodd" d="M74.432 171.023L74.0327 169.905C73.4337 170.129 73.1267 170.811 73.347 171.428C73.5673 172.045 74.2314 172.364 74.8304 172.14M74.8304 172.14L74.8411 172.137C74.8549 172.132 74.8789 172.124 74.912 172.113C74.9778 172.092 75.0803 172.061 75.2112 172.027C75.4752 171.959 75.8469 171.881 76.2713 171.842C77.1482 171.763 78.0969 171.865 78.8359 172.379C79.3663 172.747 80.0844 172.605 80.4403 172.062C80.7958 171.519 80.6547 170.78 80.1242 170.411C78.7515 169.457 77.1762 169.373 76.0569 169.474C75.4835 169.526 74.9889 169.631 74.6361 169.722C74.4592 169.768 74.3153 169.811 74.2129 169.844C74.1612 169.86 74.1202 169.875 74.0899 169.885C74.0745 169.89 74.0623 169.895 74.0528 169.898L74.0406 169.903L74.0327 169.905C74.0324 169.906 74.0327 169.905 74.432 171.023" fill="#E48542"/>
<path d="M66.1517 227.239C51.9626 228.332 43.6775 215.123 43.6775 215.123C45.4108 218.796 47.4027 222.266 49.7134 225.132C52.1554 228.064 53.3038 231.874 52.8242 235.695L52.583 237.505C67.5011 243.64 70.2383 249.785 70.5055 256.414C71.598 279.179 75.0315 331.669 76.0495 347.536C77.0671 363.336 55.3536 367.358 55.3536 367.358L55.9515 368.426C58.6346 369.548 61.6378 370.198 65.0903 370.177C80.6575 370.079 85.8504 356.316 87.531 349.071C88.0918 346.723 88.2613 344.311 88.0398 341.901L80.133 237.131C79.8279 232.98 82.2009 229.549 85.2979 226.783C88.0725 224.354 94.4458 217.349 99.3852 210.285C96.4025 211.576 80.3411 226.212 66.1517 227.239Z" fill="#E48542"/>
</g>
</svg>
