<svg width="525" height="436" viewBox="0 0 525 436" fill="none" xmlns="http://www.w3.org/2000/svg">
<path d="M524.368 382.774C520.717 386.252 482.586 390.857 438.45 384.609C400.378 379.219 382.895 382.441 382.895 378.587C382.895 374.732 417.553 376.248 458.893 372.871C507.711 368.883 529.046 378.321 524.368 382.774Z" fill="#B2C0D7"/>
<path d="M456.963 325.582C456.963 325.582 440.467 324.17 437.747 313.286C434.211 299.146 450.707 300.518 449.432 290.454C448.662 284.39 434.211 283.313 434.211 274.706C434.211 263.947 454.405 262.528 455.12 255.493C456.312 243.773 442.358 245.503 442.358 236.587C442.358 227.672 458.068 230.132 458.068 218.099C458.068 208.723 437.921 182.054 462.809 177.102C493.326 171.031 480.525 207.114 484.48 217.968C486.9 224.619 504.166 229.547 504.166 238.616C504.166 247.685 490.942 251.957 490.942 257.951C490.942 265.56 509.546 266.943 509.546 278.582C509.546 286.421 503.858 288.958 503.858 294.184C503.858 299.41 513.158 301.527 513.158 308.212C513.158 314.898 494.124 326.81 494.124 326.81L456.963 325.582Z" fill="#D2DCEE"/>
<path d="M494.574 216.501C496.401 215.03 497.053 212.807 496.03 211.534C495.008 210.262 492.695 210.423 490.867 211.894C489.036 213.365 488.384 215.588 489.407 216.86C490.433 218.132 492.746 217.971 494.574 216.501Z" fill="#E1E7F6"/>
<path d="M448.855 255.402C449.787 253.208 447.987 250.341 444.833 249C441.675 247.659 438.363 248.351 437.428 250.545C436.496 252.74 438.296 255.607 441.45 256.948C444.608 258.289 447.92 257.597 448.855 255.402Z" fill="#E1E7F6"/>
<path d="M462.805 174.589C462.805 174.589 493.291 268.12 471.643 351.089" stroke="#F0F2FF" stroke-width="2" stroke-miterlimit="10"/>
<path d="M499.417 378.804H447.951L440.001 335.101H507.367L499.417 378.804Z" fill="#D2DCEE"/>
<path d="M513.158 322.984H434.211V335.102H513.158V322.984Z" fill="#D2DCEE"/>
<path d="M184.615 45.5714L154.328 0.946411L124.039 45.5714H184.615Z" stroke="#E1E7F6" stroke-miterlimit="10"/>
<path d="M114.474 106.134H197.368V23.2589H114.474V106.134Z" fill="#E1E7F6"/>
<path d="M120.85 99.7591H190.992V29.634H120.85V99.7591Z" fill="#F0F2FF"/>
<path d="M190.992 99.7591L163.892 51.9465L136.791 99.7591H190.992Z" fill="#E1E7F6"/>
<path d="M159.109 99.7591L139.979 64.6963L120.85 99.7591H159.109Z" fill="#E1E7F6"/>
<path d="M139.98 58.3215C143.501 58.3215 146.357 55.4671 146.357 51.9465C146.357 48.4255 143.501 45.5714 139.98 45.5714C136.458 45.5714 133.603 48.4255 133.603 51.9465C133.603 55.4671 136.458 58.3215 139.98 58.3215Z" fill="#E1E7F6"/>
<path d="M326.89 95.4745C329.528 87.8851 328.629 79.5917 326.676 70.917C317.72 40.5678 301.834 29.0922 287.21 31.099C278.659 22.4197 268.085 16.7322 256.714 16.7322C216.71 16.7322 196.841 48.7168 192.359 62.0987C182.588 91.2703 189.797 113.889 190.404 128.016C191.707 158.293 166.433 176.464 163.698 186.206C154.632 218.501 238.717 184.74 238.717 184.74C238.717 184.74 217.23 157.881 230.598 116.718C232.248 117.276 242.327 116.438 244.948 117.9C248.971 120.144 251.85 126.449 254.638 129.044C253.291 135.215 251.002 140.926 247.303 145.579L262.712 159.969C264.459 157.052 265.762 153.89 266.578 150.587C266.578 150.587 268.138 157.27 269.237 166.063L287.191 193.453C296.567 178.676 295.533 209.343 295.533 209.343C306.879 203.667 327.515 201.314 320.934 190.267C303.431 160.887 319.096 117.895 326.89 95.4745Z" fill="#3D2E2C"/>
<path d="M420.853 225.484C410.416 250.508 387.44 303.848 381.227 315.964L370.027 244.713C368.257 233.453 363.344 222.927 355.858 214.353C348.372 205.779 338.618 199.507 327.726 196.264V260.404C335.187 297.975 344.578 332.577 353.744 369.764C354.878 374.362 356.188 379.099 359.22 382.73C363.885 388.318 372.062 390.176 379.106 388.387C401.961 382.581 409.95 351.823 416.807 332.419C422.029 317.634 442.461 259.123 444.983 243.947C445.082 243.337 445.097 241.35 445.374 240.215L420.853 225.484Z" fill="#FDB47E"/>
<path d="M395.171 351.667C391.793 359.949 384.246 380.075 371.661 373.454C367.487 371.258 365.906 366.171 364.716 361.596C356.93 331.69 349.852 295.392 342.066 265.486C340.929 261.119 339.772 256.699 337.59 252.751C335.409 248.803 332.057 245.315 327.775 243.928C327.765 244.061 327.74 244.192 327.726 244.325V260.404C335.187 297.974 344.578 332.577 353.744 369.763C354.878 374.362 356.188 379.098 359.22 382.729C363.885 388.318 372.062 390.176 379.106 388.386C401.961 382.58 409.95 351.823 416.807 332.418C422.029 317.633 442.461 259.123 444.983 243.947C445.082 243.337 445.093 241.35 445.374 240.215L444.272 235.925C439.863 234.714 437.451 233.314 435.083 236.33C435.083 236.33 435.896 251.818 395.171 351.667Z" fill="#E48544"/>
<path d="M176.526 368.295C176.352 371.786 175.866 375.254 175.074 378.659C173.333 386.216 169.53 395.755 161.239 399.413C160.108 399.863 158.946 400.234 157.763 400.522C157.684 400.546 157.603 400.566 157.523 400.581C156.255 400.822 154.968 400.945 153.678 400.941C148.332 400.941 144.013 400.147 140.551 398.521C137.948 396.97 135.609 395.009 133.626 392.716C132.062 390.942 130.597 389.083 129.236 387.147C124.939 381.159 120.563 375.228 116.322 369.204C102.579 349.684 89.3104 329.816 76.1834 309.877C69.4007 299.577 62.6672 289.246 55.9835 278.885C55.9504 278.842 55.9196 278.796 55.8916 278.75C54.7989 277.668 53.4671 276.86 52.0042 276.391C51.6221 276.271 51.2041 276.136 50.758 275.986C50.3191 275.844 49.8588 275.688 49.3705 275.518C47.8267 274.985 46.0354 274.325 44.0459 273.493C43.7558 273.373 43.4653 273.245 43.168 273.117C42.8424 272.975 42.5025 272.833 42.1626 272.677C41.8228 272.527 41.4758 272.371 41.1217 272.201C40.7747 272.044 40.4281 271.881 40.0741 271.71C39.72 271.547 39.3588 271.369 38.9906 271.185C38.6225 271 38.2543 270.815 37.8861 270.624C37.5392 270.446 37.1923 270.261 36.8453 270.077C36.8311 270.07 36.8241 270.062 36.8241 270.062C30.1829 266.533 24.0851 262.059 18.7197 256.779C16.5673 254.662 12.0642 247.346 11.1367 246.295L14.7547 245.115C15.4132 242.8 31.0961 219.259 31.0961 219.259L39.2526 217.256C48.7263 226.611 54.7587 230.255 58.0014 227.229C57.9517 225.723 57.9943 224.231 57.973 222.974C57.4985 214.933 59.205 206.793 62.2638 199.348C63.885 194.731 71.2626 196.535 70.5051 201.444C69.4713 208.59 68.4517 215.395 69.2238 222.64C69.2222 222.686 69.2246 222.731 69.2309 222.775C69.3087 224.338 70.0449 231.946 70.6753 238.367C70.6737 238.384 70.676 238.401 70.6824 238.417C70.7175 238.772 70.753 239.127 70.7885 239.475C70.8024 239.688 70.8237 239.894 70.8521 240.1C70.9089 240.662 70.9583 241.216 71.0151 241.741C71.036 241.976 71.0574 242.21 71.0858 242.43C71.1 242.587 71.1142 242.743 71.1284 242.892C71.1564 243.183 71.1849 243.46 71.2133 243.723C71.2697 244.256 71.3195 244.753 71.3617 245.201C71.3759 245.3 71.383 245.393 71.3901 245.485C71.4114 245.67 71.4328 245.84 71.447 246.011C71.475 246.259 71.4963 246.479 71.5176 246.678C71.5318 246.827 71.546 246.962 71.5602 247.083C71.6025 247.509 71.6309 247.765 71.638 247.793C71.6735 247.949 71.7016 248.113 71.7371 248.269C71.7726 248.425 71.801 248.582 71.8433 248.738C71.8646 248.859 71.9001 248.979 71.9281 249.1C71.9305 249.12 71.9353 249.139 71.9424 249.157C71.9495 249.171 71.9495 249.193 71.957 249.207C71.9708 249.278 71.9996 249.349 72.0138 249.42C72.0347 249.484 72.056 249.548 72.0774 249.619C72.0967 249.682 72.1204 249.744 72.148 249.803C72.1764 249.889 72.2049 249.967 72.2404 250.052C72.2613 250.109 72.2897 250.159 72.311 250.208C72.3324 250.251 72.3537 250.294 72.3746 250.336C72.3959 250.379 72.4172 250.429 72.4385 250.471C72.467 250.514 72.495 250.564 72.5234 250.606C72.5735 250.692 72.628 250.775 72.6864 250.855C72.7216 250.905 72.7642 250.947 72.7997 250.997C72.8206 251.025 72.8491 251.054 72.8704 251.082C72.9209 251.145 72.9754 251.204 73.033 251.26L127.759 320.814C126.796 290.418 124.175 256.445 123.962 253.057C123.013 237.834 128.777 224.913 128.777 224.913L150.251 216.112L163.789 265.239L176.526 368.295Z" fill="#FDB47E"/>
<path d="M140.551 398.521C137.771 397.235 135.381 395.234 133.626 392.716C135.609 395.009 137.947 396.971 140.551 398.521Z" fill="#FDB47E"/>
<path d="M161.239 399.413C160.124 399.911 158.958 400.282 157.763 400.522C158.946 400.234 160.107 399.863 161.239 399.413Z" fill="#FDB47E"/>
<path d="M37.8858 270.623C38.254 270.815 38.6222 271 38.9903 271.184C39.3586 271.369 39.7196 271.547 40.0737 271.71C40.4278 271.881 40.7747 272.044 41.1217 272.2C41.4754 272.371 41.8224 272.527 42.1622 272.676C42.5021 272.832 42.842 272.974 43.1676 273.117C43.4653 273.244 43.7554 273.372 44.0455 273.493C46.0354 274.324 47.8267 274.985 49.3701 275.518C49.8588 275.688 50.3191 275.844 50.758 275.986C51.2041 276.136 51.6217 276.271 52.0038 276.391C53.4667 276.859 54.7986 277.668 55.8912 278.75C55.9192 278.796 55.95 278.841 55.9832 278.885C62.6455 289.263 69.379 299.593 76.1834 309.876C89.3104 329.816 102.579 349.684 116.322 369.204C120.563 375.228 124.939 381.159 129.236 387.147C130.597 389.082 132.062 390.942 133.626 392.716C135.609 395.009 137.947 396.97 140.55 398.517C144.013 400.147 148.332 400.941 153.677 400.941C154.968 400.945 156.255 400.822 157.522 400.578C157.603 400.566 157.684 400.546 157.763 400.522C158.946 400.234 160.107 399.863 161.239 399.413C169.53 395.755 173.333 386.216 175.074 378.658C175.866 375.254 176.352 371.786 176.526 368.295L163.788 265.239L154.705 232.277C152.061 230.041 150.051 228.213 149.889 228.067C150.293 229.164 149.968 230.971 149.975 232.112C149.994 235.289 149.986 238.466 149.978 241.643C149.959 249.77 149.921 257.897 149.865 266.024C149.681 298.157 157.524 329.65 159.678 361.615C159.699 361.938 159.721 362.261 159.742 362.584C160.106 368.255 161.443 377.378 157.451 382.025C156.356 383.245 154.955 384.148 153.394 384.639C146.703 386.863 143.135 381.947 139.68 377.408C135.552 371.974 131.552 366.434 127.551 360.9C116.456 345.557 105.47 330.135 94.592 314.636C87.8728 305.132 81.1749 295.613 74.4983 286.081C68.1754 277.038 65.1521 266.113 70.2359 256.31C70.2359 256.31 72.1082 254.987 74.5867 253.235L73.0322 251.26C72.9746 251.204 72.9201 251.145 72.8696 251.082C72.8483 251.054 72.8199 251.025 72.7986 250.997C72.7634 250.947 72.7208 250.904 72.6853 250.855C72.6269 250.775 72.5728 250.692 72.5226 250.606C72.4942 250.564 72.4658 250.514 72.4374 250.471C72.4165 250.429 72.3951 250.379 72.3738 250.336C72.3525 250.294 72.3312 250.251 72.3103 250.208C72.289 250.159 72.2605 250.109 72.2392 250.052C72.2041 249.967 72.1757 249.889 72.1472 249.803C72.1192 249.744 72.0955 249.682 72.0766 249.619C72.0553 249.548 72.034 249.484 72.0126 249.42C71.9984 249.349 71.9704 249.278 71.9562 249.207C71.9491 249.193 71.9491 249.171 71.9416 249.157C71.9345 249.139 71.9297 249.12 71.9274 249.1C71.899 248.979 71.8638 248.859 71.8425 248.738C71.7999 248.582 71.7715 248.425 71.7363 248.269C71.7008 248.113 71.6724 247.949 71.6372 247.793C71.6301 247.765 71.6017 247.509 71.5591 247.083C71.5453 246.962 71.5311 246.827 71.5168 246.678C71.4955 246.479 71.4742 246.259 71.4458 246.011C71.432 245.84 71.4107 245.67 71.3894 245.485C71.3822 245.393 71.3751 245.3 71.3609 245.201C71.3187 244.753 71.269 244.256 71.2121 243.723C71.1841 243.46 71.1557 243.183 71.1272 242.892C71.113 242.743 71.0988 242.587 71.085 242.43C71.0566 242.21 71.0353 241.976 71.014 241.741C70.9575 241.216 70.9078 240.662 70.8513 240.1C70.8229 239.894 70.8016 239.688 70.7874 239.475C70.7522 239.127 70.7167 238.772 70.6812 238.417C70.6749 238.401 70.6725 238.384 70.6741 238.367C70.562 237.221 70.4459 236.038 70.3311 234.858C70.3263 234.826 70.3165 234.799 70.3129 234.766C70.3058 237.508 69.3782 250.471 57.8941 262.178C49.5533 270.688 41.4537 270.979 36.823 270.062C36.823 270.062 36.8301 270.07 36.8442 270.077C37.192 270.261 37.5387 270.446 37.8858 270.623Z" fill="#E48544"/>
<path d="M370.173 228.791C371.099 228.018 371.689 226.915 371.82 225.714C371.951 224.513 371.612 223.308 370.874 222.353C365.603 215.546 353.683 200.991 343.905 195.177C331.676 187.906 295.763 190.284 295.532 190.297L246.131 171.693C245.948 171.704 196.035 186.63 196.035 186.63C195.806 186.617 195.579 186.586 195.354 186.539C191.781 185.782 160.037 187.906 147.808 195.177C138.029 200.991 126.11 215.546 120.839 222.353C120.101 223.308 119.762 224.513 119.893 225.714C120.023 226.915 120.614 228.018 121.54 228.791C130.533 236.319 154.56 248.755 161.381 263.705C161.807 264.645 161.909 265.701 161.67 266.706C160.793 270.474 158.681 280.746 159.692 288.522C160.931 298.043 184.095 364.781 171.86 421.407C171.654 422.366 171.757 423.364 172.154 424.26C172.551 425.156 173.22 425.906 174.067 426.395C182.083 431.028 206.44 435.432 245.856 435.432C285.27 435.432 309.628 431.028 317.644 426.395C318.49 425.906 319.16 425.156 319.557 424.26C319.954 423.364 320.057 422.366 319.851 421.407C307.616 364.781 330.78 298.043 332.018 288.522C333.029 280.746 330.917 270.474 330.04 266.706C329.802 265.701 329.904 264.645 330.33 263.705C337.153 248.756 361.179 236.32 370.173 228.791Z" fill="white"/>
<path d="M195.355 186.538C192.881 186.014 176.906 186.872 163.251 189.862C175.861 197.369 187.609 199.687 200.518 198.523C202.624 194.161 202.366 188.757 201.71 184.934C198.238 185.972 196.036 186.63 196.036 186.63C195.807 186.617 195.58 186.586 195.355 186.538Z" fill="#E6D8D6"/>
<path d="M174.33 406.766C174.301 408.498 174.046 410.223 173.573 411.888C173.828 410.183 174.047 408.478 174.246 406.774L174.33 406.766Z" fill="#E6D8D6"/>
<path d="M246.638 429.84C247.311 430.002 247.902 430.405 248.299 430.973C248.696 431.541 248.871 432.236 248.791 432.926C248.711 433.617 248.381 434.252 247.865 434.714C247.348 435.176 246.681 435.432 245.989 435.436H245.856C209.697 435.436 186.212 431.719 176.392 427.536C175.643 427.22 174.913 426.865 174.204 426.466C174.141 426.431 174.082 426.391 174.029 426.34C172.492 424.963 171.966 423.037 171.966 420.894V420.882C172.601 417.922 173.131 414.931 173.569 411.924C173.572 411.9 173.576 411.876 173.582 411.853C174.051 410.199 174.303 408.486 174.331 406.766C174.332 406.718 174.33 406.667 174.324 406.616C174.311 406.414 174.316 406.209 174.338 406.008C175.35 396.244 175.651 386.424 175.237 376.62C174.239 346.324 167.031 317.79 159.802 289.199C159.724 288.744 159.724 288.645 159.711 288.567C167.42 309.468 175.881 315.298 182.721 318.308C192.006 322.393 198.306 321.278 195.684 345.612C194.079 360.532 188.225 374.06 189.041 387.196C189.511 394.836 192.272 402.152 196.961 408.186C201.651 414.224 208.05 418.696 215.319 421.016C224.406 423.913 235.391 427.149 246.638 429.84Z" fill="#E6D8D6"/>
<path d="M171.966 420.882C171.966 418.033 172.879 414.793 173.572 411.888C173.134 414.907 172.603 417.914 171.966 420.882Z" fill="#E6D8D6"/>
<path d="M338.583 252.186C338.583 252.186 335.477 244.398 333.148 240.503C330.58 236.209 326.503 229.197 322.471 229.037C318.439 228.876 317.431 233.242 321.262 239.512C325.092 245.783 329.683 265.241 329.683 265.241C331.775 259.809 336.149 256.145 341.688 249.85L338.583 252.186Z" fill="#E6D8D6"/>
<path d="M170.599 239.513C174.429 233.242 173.422 228.876 169.389 229.037C165.357 229.197 159.269 237.089 155.842 240.73C153.487 243.414 151.506 246.405 149.951 249.621L149.966 249.638C154.891 253.987 159.101 258.704 161.383 263.705C161.809 264.646 161.911 265.702 161.672 266.706C161.672 266.706 166.768 245.783 170.599 239.513Z" fill="#E6D8D6"/>
<path d="M295.534 190.297C269.569 183.969 272.449 141.308 272.449 141.308L246.198 129.124L223.12 121.554C223.12 121.554 226.412 179.136 195.685 186.609C195.685 186.609 215.728 244.398 243.869 244.398C272.01 244.398 295.534 190.297 295.534 190.297Z" fill="#FDB47E"/>
<path d="M281.549 180.779C270.771 166.205 272.447 141.317 272.447 141.309L246.197 129.124L231.376 124.262L223.219 125.754C223.224 126.765 223.217 127.935 223.189 129.237C223.188 129.298 223.187 129.359 223.186 129.421C223.181 129.62 223.176 129.823 223.17 130.029C223.168 130.134 223.165 130.239 223.162 130.345C223.156 130.54 223.15 130.737 223.144 130.937C223.14 131.055 223.135 131.174 223.131 131.293C223.124 131.494 223.117 131.696 223.109 131.902C223.104 132.022 223.099 132.147 223.093 132.269C223.079 132.602 223.063 132.941 223.046 133.286C223.037 133.476 223.028 133.666 223.018 133.859C223.009 134.019 222.999 134.182 222.991 134.343C222.979 134.546 222.967 134.749 222.955 134.955C222.945 135.118 222.934 135.284 222.924 135.45C222.911 135.659 222.897 135.869 222.882 136.08C222.87 136.246 222.859 136.412 222.847 136.58C222.83 136.806 222.813 137.035 222.795 137.265C222.783 137.421 222.771 137.576 222.758 137.733C222.735 138.025 222.709 138.32 222.684 138.617C222.675 138.713 222.667 138.808 222.659 138.904C222.623 139.303 222.585 139.706 222.545 140.112C222.536 140.208 222.525 140.305 222.516 140.401C222.484 140.716 222.451 141.032 222.416 141.35C222.402 141.485 222.387 141.62 222.371 141.755C222.34 142.042 222.307 142.33 222.272 142.619C222.256 142.762 222.239 142.905 222.221 143.048C222.185 143.347 222.147 143.648 222.108 143.95C222.092 144.077 222.075 144.205 222.058 144.333C222.007 144.716 221.955 145.101 221.9 145.488C221.893 145.532 221.887 145.576 221.882 145.621C221.817 146.07 221.75 146.521 221.679 146.974C221.671 147.029 221.662 147.083 221.653 147.138C221.593 147.525 221.53 147.913 221.464 148.303C221.446 148.415 221.426 148.529 221.407 148.642C221.349 148.979 221.29 149.316 221.229 149.655C221.207 149.779 221.184 149.904 221.16 150.029C221.097 150.372 221.032 150.715 220.966 151.059C220.944 151.168 220.923 151.277 220.902 151.387C220.821 151.799 220.736 152.212 220.649 152.626C220.641 152.663 220.633 152.701 220.626 152.738C220.525 153.209 220.422 153.68 220.314 154.151L220.298 154.219C220.2 154.646 220.099 155.072 219.996 155.498C219.969 155.604 219.942 155.711 219.916 155.817C219.829 156.167 219.74 156.516 219.649 156.865C219.617 156.986 219.585 157.107 219.553 157.228C219.461 157.573 219.367 157.918 219.27 158.263C219.239 158.373 219.208 158.484 219.177 158.595C219.062 159 218.943 159.404 218.821 159.807C218.809 159.849 218.797 159.892 218.783 159.935C218.642 160.401 218.496 160.865 218.345 161.327C218.341 161.34 218.337 161.351 218.333 161.364C218.193 161.792 218.049 162.219 217.9 162.644C217.865 162.746 217.828 162.847 217.792 162.949C217.673 163.287 217.551 163.624 217.427 163.959C217.381 164.081 217.335 164.203 217.289 164.325C217.166 164.649 217.041 164.972 216.913 165.293C216.868 165.406 216.823 165.52 216.778 165.632C216.629 165.999 216.477 166.364 216.322 166.726C216.296 166.786 216.271 166.847 216.246 166.906C216.057 167.343 215.863 167.776 215.664 168.206L215.651 168.234C215.464 168.636 215.273 169.034 215.077 169.429C215.026 169.531 214.974 169.631 214.923 169.733C214.769 170.037 214.613 170.34 214.454 170.64C214.391 170.759 214.327 170.878 214.263 170.996C214.108 171.283 213.949 171.567 213.788 171.849C213.724 171.963 213.66 172.077 213.594 172.189C213.413 172.501 213.228 172.809 213.04 173.114C212.995 173.188 212.95 173.263 212.905 173.336C212.664 173.723 212.418 174.104 212.166 174.48C212.158 174.491 212.151 174.501 212.144 174.512C211.906 174.864 211.663 175.212 211.416 175.553C211.344 175.651 211.272 175.747 211.201 175.843C211.012 176.099 210.821 176.351 210.627 176.6C210.54 176.713 210.451 176.824 210.362 176.935C210.174 177.17 209.984 177.402 209.79 177.63C209.7 177.737 209.611 177.844 209.52 177.949C209.306 178.196 209.089 178.436 208.869 178.675C208.797 178.754 208.726 178.834 208.653 178.912C208.355 179.229 208.051 179.54 207.741 179.844C207.73 179.855 207.718 179.865 207.707 179.876C207.414 180.161 207.114 180.44 206.809 180.712C206.714 180.797 206.617 180.878 206.521 180.962C206.295 181.158 206.066 181.352 205.835 181.542C205.72 181.636 205.603 181.728 205.486 181.82C205.263 181.996 205.037 182.168 204.808 182.337C204.689 182.425 204.57 182.513 204.449 182.599C204.201 182.776 203.949 182.946 203.694 183.115C203.591 183.183 203.49 183.253 203.386 183.32C203.025 183.551 202.658 183.776 202.284 183.99C202.27 183.998 202.255 184.005 202.241 184.013C201.884 184.216 201.52 184.411 201.15 184.597C201.028 184.659 200.903 184.716 200.779 184.776C200.512 184.906 200.242 185.033 199.969 185.153C199.823 185.218 199.676 185.28 199.529 185.342C199.266 185.452 199 185.558 198.732 185.659C198.58 185.717 198.429 185.774 198.276 185.829C197.989 185.932 197.696 186.028 197.402 186.122C197.267 186.165 197.134 186.21 196.998 186.251C196.566 186.38 196.129 186.501 195.683 186.61C195.683 186.61 195.744 186.783 195.861 187.109L195.862 187.113C196.336 188.422 197.735 192.188 199.933 197.202C199.942 197.223 199.952 197.245 199.961 197.266C200.137 197.666 200.317 198.074 200.503 198.489L200.518 198.524C229.079 197.466 230.581 182.409 237.234 164.871C237.334 164.612 237.501 164.383 237.717 164.21C237.934 164.036 238.192 163.923 238.466 163.882C238.74 163.841 239.02 163.874 239.277 163.977C239.535 164.08 239.76 164.249 239.932 164.467C246.431 172.586 264.742 186.918 281.549 180.779Z" fill="#E48544"/>
<path d="M71.957 249.207C71.9929 249.342 72.0355 249.484 72.0782 249.619C72.0568 249.548 72.0355 249.484 72.0142 249.42C71.9996 249.349 71.9708 249.278 71.957 249.207Z" fill="#FDB47E"/>
<path d="M72.3738 250.336C72.4169 250.43 72.467 250.52 72.5238 250.606C72.495 250.564 72.4666 250.514 72.4382 250.471C72.4169 250.429 72.3952 250.379 72.3738 250.336Z" fill="#FDB47E"/>
<path d="M36.8452 270.077C37.1921 270.262 37.539 270.446 37.8859 270.624C37.5532 270.461 37.2133 270.283 36.8735 270.098C36.8628 270.093 36.8532 270.086 36.8452 270.077Z" fill="#E48544"/>
<path d="M49.3705 275.518C49.8663 275.689 50.3266 275.845 50.7584 275.987C50.3195 275.845 49.8592 275.689 49.3705 275.518Z" fill="#E48544"/>
<path d="M70.8517 240.1C70.9089 240.669 70.9587 241.216 71.0159 241.741C70.9587 241.216 70.9085 240.662 70.8517 240.1Z" fill="#E48544"/>
<path d="M71.447 246.01C71.4754 246.252 71.4967 246.479 71.518 246.678C71.4967 246.479 71.4754 246.259 71.447 246.01Z" fill="#E48544"/>
<path d="M1.26111 193.512C0.468766 192.726 0.0160221 191.658 0.000417107 190.541C-0.0151879 189.423 0.407617 188.344 1.1777 187.536C1.94779 186.728 3.00348 186.255 4.11726 186.221C5.23105 186.187 6.31374 186.592 7.13199 187.351L39.2518 217.256C39.6675 217.635 40.0038 218.093 40.2422 218.603C40.4803 219.113 40.6149 219.666 40.6389 220.229C40.6626 220.791 40.575 221.353 40.3812 221.882C40.1874 222.411 39.8905 222.896 39.5088 223.309C39.1267 223.722 38.6669 224.055 38.1559 224.288C37.6449 224.522 37.0928 224.651 36.5315 224.669C35.9702 224.688 35.4109 224.594 34.886 224.394C34.361 224.194 33.8808 223.892 33.4731 223.504L1.35324 193.6C1.32173 193.57 1.2912 193.541 1.26111 193.512Z" fill="#FDB47E"/>
<path d="M6.48333 241.707L18.6838 253.755C19.0812 254.149 19.552 254.46 20.0694 254.671C20.5868 254.882 21.1407 254.989 21.6992 254.985C22.2577 254.981 22.81 254.866 23.3244 254.648C23.8389 254.43 24.3053 254.112 24.6971 253.713C25.0889 253.313 25.3984 252.84 25.6078 252.321C25.8172 251.801 25.9224 251.246 25.9175 250.685C25.9125 250.125 25.7975 249.571 25.579 249.055C25.3604 248.539 25.0426 248.072 24.6439 247.68L12.4435 235.633C11.6405 234.84 10.5564 234.399 9.42973 234.408C8.30307 234.417 7.22607 234.875 6.43573 235.68C5.64535 236.486 5.20636 237.574 5.21528 238.704C5.2242 239.834 5.68036 240.915 6.48333 241.707Z" fill="#FDB47E"/>
<path d="M11.2496 231.463L27.4803 247.49C27.8777 247.884 28.3485 248.196 28.8659 248.406C29.3834 248.618 29.9372 248.724 30.4957 248.72C31.0542 248.716 31.6065 248.602 32.1209 248.384C32.6353 248.165 33.1018 247.848 33.4936 247.448C33.8854 247.049 34.1948 246.576 34.4043 246.056C34.6136 245.537 34.7189 244.981 34.714 244.421C34.709 243.861 34.594 243.306 34.3754 242.791C34.1569 242.275 33.8391 241.808 33.4403 241.415L17.2096 225.388C16.8126 224.993 16.3417 224.68 15.8239 224.468C15.3061 224.256 14.7517 224.149 14.1924 224.152C13.6332 224.155 13.0801 224.269 12.5649 224.488C12.0496 224.706 11.5825 225.024 11.1901 225.424C10.7978 225.824 10.4881 226.298 10.2787 226.818C10.0692 227.338 9.96429 227.895 9.96981 228.456C9.97534 229.017 10.0912 229.571 10.3109 230.087C10.5305 230.604 10.8495 231.071 11.2496 231.463Z" fill="#FDB47E"/>
<path d="M36.1958 239.428C35.0806 239.429 34.0099 238.989 33.2161 238.204L15.4898 220.7C14.6867 219.907 14.2306 218.826 14.2216 217.696C14.2127 216.566 14.6517 215.478 15.442 214.672C16.2324 213.867 17.3094 213.409 18.4361 213.4C19.5628 213.391 20.6469 213.831 21.45 214.625L39.1763 232.128C39.7772 232.722 40.1885 233.481 40.3579 234.31C40.5276 235.139 40.4471 235.999 40.1277 236.782C39.808 237.564 39.2633 238.234 38.5631 238.705C37.8629 239.177 37.039 239.428 36.1958 239.428Z" fill="#FDB47E"/>
<path d="M25.4486 255.52C25.2392 255.52 25.0346 255.458 24.8603 255.341C24.686 255.225 24.5499 255.06 24.469 254.866C24.3881 254.672 24.3661 254.459 24.4058 254.253C24.4454 254.047 24.5449 253.857 24.6918 253.707C25.4808 252.901 25.9189 251.813 25.9099 250.683C25.901 249.554 25.4458 248.473 24.6441 247.679L11.1267 234.332C10.9259 234.133 10.8118 233.863 10.8095 233.581C10.8073 233.298 10.917 233.026 11.1146 232.825C11.3122 232.623 11.5815 232.509 11.8632 232.507C12.1449 232.504 12.416 232.614 12.6168 232.812L26.1343 246.16C27.3369 247.351 28.0197 248.971 28.0331 250.666C28.0464 252.361 27.3892 253.992 26.2056 255.201C26.1069 255.302 25.9891 255.382 25.8591 255.437C25.7291 255.492 25.5895 255.52 25.4486 255.52Z" fill="#E48544"/>
<path d="M21.6627 257.109C19.9899 257.114 18.3834 256.454 17.1942 255.274C16.9934 255.076 16.8793 254.805 16.877 254.523C16.8748 254.24 16.9845 253.968 17.1821 253.767C17.3797 253.565 17.649 253.451 17.9307 253.448C18.2124 253.446 18.4835 253.556 18.6843 253.755C19.4769 254.542 20.5481 254.982 21.6634 254.978C21.6748 254.978 21.6865 254.978 21.6979 254.977C22.2559 254.975 22.8079 254.861 23.3218 254.643C23.8358 254.425 24.3016 254.107 24.6922 253.707C24.789 253.604 24.9056 253.52 25.035 253.463C25.1644 253.405 25.304 253.373 25.4457 253.37C25.5874 253.368 25.7282 253.393 25.8598 253.446C25.9915 253.498 26.1114 253.576 26.2123 253.676C26.3134 253.776 26.3934 253.895 26.4479 254.026C26.5024 254.157 26.5301 254.298 26.5295 254.44C26.5289 254.582 26.4999 254.723 26.4443 254.854C26.3887 254.984 26.3076 255.103 26.2058 255.201C25.6202 255.802 24.9217 256.279 24.1508 256.607C23.3799 256.934 22.5519 257.104 21.7149 257.108C21.6977 257.109 21.68 257.109 21.6627 257.109Z" fill="#E48544"/>
<path d="M36.1945 241.558C34.5218 241.563 32.9152 240.903 31.7261 239.722L17.2097 225.388C17.1102 225.29 17.031 225.173 16.9766 225.044C16.9222 224.915 16.8936 224.777 16.8925 224.637C16.8913 224.497 16.9177 224.358 16.9701 224.228C17.0224 224.099 17.0997 223.98 17.1975 223.881C17.2954 223.781 17.4118 223.702 17.5403 223.647C17.6687 223.593 17.8066 223.564 17.9461 223.563C18.0856 223.562 18.2239 223.588 18.3533 223.641C18.4826 223.693 18.6003 223.771 18.6997 223.869L33.2161 238.203C34.0088 238.99 35.0799 239.43 36.1952 239.427C36.2066 239.427 36.2183 239.427 36.2297 239.426C37.0695 239.419 37.8885 239.163 38.5831 238.689C39.2777 238.216 39.8167 237.546 40.1321 236.765C40.4475 235.984 40.5249 235.127 40.3547 234.302C40.1846 233.477 39.7745 232.721 39.1763 232.129L21.45 214.625C21.2533 214.426 21.1427 214.157 21.1422 213.876C21.1417 213.596 21.2514 213.327 21.4474 213.127C21.6435 212.927 21.9101 212.813 22.1895 212.809C22.4689 212.805 22.7386 212.912 22.9401 213.106L40.6662 230.61C41.5642 231.497 42.1804 232.631 42.4358 233.869C42.6916 235.107 42.5755 236.394 42.1026 237.566C41.6293 238.737 40.8205 239.742 39.778 240.453C38.7356 241.163 37.5066 241.548 36.2464 241.557C36.2294 241.558 36.2117 241.558 36.1945 241.558Z" fill="#E48544"/>
<path d="M30.4597 250.843C28.7874 250.846 27.1814 250.187 25.9899 249.009C25.7891 248.811 25.6751 248.541 25.6728 248.258C25.6705 247.976 25.7803 247.704 25.9778 247.503C26.1754 247.301 26.4447 247.187 26.7264 247.184C27.0081 247.182 27.2792 247.292 27.48 247.49C28.2855 248.27 29.3653 248.7 30.4846 248.685C31.6039 248.671 32.6723 248.213 33.4575 247.413C34.2428 246.613 34.6814 245.534 34.6781 244.411C34.6748 243.288 34.2298 242.211 33.4398 241.416L15.8392 224.035C15.6384 223.837 15.5243 223.567 15.5221 223.284C15.5198 223.002 15.6295 222.73 15.8271 222.528C16.0247 222.327 16.294 222.212 16.5757 222.21C16.8574 222.208 17.1285 222.318 17.3293 222.516L34.9298 239.897C35.8314 240.786 36.4487 241.925 36.703 243.168C36.9572 244.411 36.837 245.701 36.3575 246.875C35.8781 248.049 35.0612 249.054 34.0109 249.76C32.9606 250.467 31.7244 250.844 30.4597 250.843Z" fill="#E48544"/>
<path d="M48.3896 260.756C48.2329 260.756 48.0786 260.722 47.9369 260.655C47.7952 260.588 47.67 260.491 47.5706 260.37C43.9635 255.994 42.3995 251.347 42.9217 246.559C43.8798 237.774 51.486 231.737 51.8088 231.483C52.0311 231.31 52.3129 231.232 52.5928 231.266C52.8723 231.301 53.1265 231.446 53.2998 231.669C53.4731 231.891 53.5508 232.174 53.5161 232.455C53.4817 232.735 53.3373 232.99 53.115 233.164C53.0428 233.221 45.8838 238.922 45.0316 246.804C44.5785 250.994 45.9837 255.101 49.2071 259.011C49.3354 259.167 49.4171 259.356 49.4424 259.557C49.4677 259.757 49.4357 259.961 49.35 260.144C49.264 260.327 49.1282 260.481 48.9585 260.59C48.7883 260.698 48.591 260.756 48.3896 260.756Z" fill="#E48544"/>
<path d="M464.653 163.278C463.504 165.545 462.288 167.764 461.029 169.955C459.762 172.139 458.475 174.31 457.141 176.451C455.822 178.601 454.484 180.737 453.107 182.846C451.741 184.966 450.351 187.068 448.907 189.133C448.054 190.354 446.755 191.19 445.295 191.46C443.834 191.729 442.322 191.412 441.095 190.576C439.863 189.739 439.01 188.451 438.714 186.989C438.422 185.527 438.714 184.008 439.528 182.76C440.905 180.648 442.334 178.574 443.791 176.517C445.232 174.45 446.712 172.409 448.212 170.383C449.7 168.348 451.232 166.342 452.783 164.35C454.342 162.364 455.945 160.407 457.618 158.498C458.305 157.712 459.257 157.205 460.291 157.072C461.325 156.939 462.371 157.19 463.235 157.776C464.1 158.363 464.72 159.246 464.98 160.259C465.241 161.271 465.126 162.345 464.653 163.278Z" fill="#FDB47E"/>
<path d="M420.975 229.798C421.358 236.283 436.764 237.275 454.808 235.631C461.585 235.013 464.933 195.157 464.933 195.157C464.878 195.108 464.83 195.056 464.775 195.009C464.775 195.009 456.553 193.847 450.999 192.402C451.022 192.404 451.046 192.407 451.066 192.409C453.568 192.662 454.847 181.523 452.357 181.198C449.866 180.853 443.858 176.423 443.858 176.423L438.612 182.456C438.612 182.456 419.143 198.747 420.975 229.798Z" fill="#FDB47E"/>
<path d="M466.425 194.738L458.432 193.527C452.254 192.591 448.599 193.166 445.085 198.694C442.457 202.827 440.195 207.182 438.32 211.708C435.825 217.729 431.945 233.314 442.895 233.314C454.808 233.314 466.425 194.738 466.425 194.738Z" fill="#E48544"/>
<path d="M435.572 223.838L435.087 236.329L442.895 238.654V225.614L435.572 223.838Z" fill="#E48544"/>
<path d="M444.537 244.476H472.026C476.625 244.476 481.382 240.735 482.649 236.121L501.738 166.648C503.005 162.034 500.305 158.293 495.707 158.293H468.217C463.618 158.293 458.862 162.034 457.595 166.648L438.505 236.121C437.234 240.735 439.938 244.476 444.537 244.476Z" fill="#3D2E2C"/>
<path d="M495.707 161.845C496.141 161.814 496.575 161.882 496.974 162.045C497.376 162.208 497.736 162.461 498.028 162.785C498.296 163.216 498.462 163.703 498.513 164.21C498.568 164.716 498.501 165.227 498.328 165.705L479.238 235.177C478.397 238.239 475.026 240.924 472.026 240.924H444.537C444.103 240.956 443.668 240.887 443.266 240.724C442.867 240.561 442.504 240.308 442.216 239.985C441.947 239.553 441.782 239.066 441.726 238.56C441.675 238.053 441.742 237.542 441.916 237.065L461.005 167.592C461.846 164.531 465.217 161.845 468.217 161.845H495.707ZM495.707 158.293H468.217C463.618 158.293 458.862 162.034 457.595 166.648L438.505 236.121C437.234 240.735 439.938 244.476 444.537 244.476H472.026C476.625 244.476 481.382 240.735 482.649 236.121L501.738 166.648C503.005 162.034 500.305 158.293 495.707 158.293Z" fill="#3D2E2C"/>
<path d="M438.505 236.121L457.595 166.648C458.862 162.034 463.618 158.293 468.217 158.293H475.855C471.257 158.293 466.5 162.034 465.233 166.648L446.143 236.121C444.872 240.735 447.576 244.476 452.175 244.476H444.537C439.938 244.476 437.234 240.735 438.505 236.121Z" fill="#543F3D"/>
<path d="M496.887 206.436H474.975C474.695 206.436 474.422 206.324 474.225 206.124C474.024 205.924 473.913 205.653 473.913 205.37C473.913 205.088 474.024 204.817 474.225 204.617C474.422 204.417 474.695 204.305 474.975 204.305H496.887C497.167 204.305 497.436 204.417 497.637 204.617C497.834 204.817 497.949 205.088 497.949 205.37C497.949 205.653 497.834 205.924 497.637 206.124C497.436 206.324 497.167 206.436 496.887 206.436Z" fill="#E48544"/>
<path d="M496.887 204.304H474.975C473.85 204.304 472.768 203.855 471.971 203.056C471.174 202.256 470.728 201.173 470.728 200.042C470.728 198.912 471.174 197.828 471.971 197.029C472.768 196.229 473.85 195.78 474.975 195.78H496.887C498.012 195.78 499.093 196.229 499.887 197.029C500.684 197.828 501.134 198.912 501.134 200.042C501.134 201.173 500.684 202.256 499.887 203.056C499.093 203.855 498.012 204.304 496.887 204.304Z" fill="#FDB47E"/>
<path d="M496.883 217.09H472.011C471.73 217.09 471.462 216.978 471.261 216.778C471.063 216.578 470.949 216.307 470.949 216.025C470.949 215.742 471.063 215.471 471.261 215.271C471.462 215.072 471.73 214.959 472.011 214.959H496.883C497.167 214.959 497.436 215.072 497.637 215.271C497.834 215.471 497.945 215.742 497.945 216.025C497.945 216.307 497.834 216.578 497.637 216.778C497.436 216.978 497.167 217.09 496.883 217.09Z" fill="#E48544"/>
<path d="M472.011 214.959H496.883C498.012 214.959 499.093 214.51 499.887 213.711C500.684 212.912 501.134 211.827 501.134 210.697C501.134 209.567 500.684 208.482 499.887 207.683C499.093 206.884 498.012 206.435 496.883 206.435H472.011C470.886 206.435 469.804 206.884 469.007 207.683C468.213 208.482 467.763 209.567 467.763 210.697C467.763 211.827 468.213 212.912 469.007 213.711C469.804 214.51 470.886 214.959 472.011 214.959Z" fill="#FDB47E"/>
<path d="M472.322 225.615H495.095C496.224 225.615 497.305 225.166 498.099 224.366C498.896 223.567 499.346 222.483 499.346 221.352C499.346 220.222 498.896 219.138 498.099 218.339C497.305 217.539 496.224 217.09 495.095 217.09H472.322C471.197 217.09 470.116 217.539 469.318 218.339C468.521 219.138 468.075 220.222 468.075 221.352C468.075 222.483 468.521 223.567 469.318 224.366C470.116 225.166 471.197 225.615 472.322 225.615Z" fill="#FDB47E"/>
<path d="M490.239 227.745H472.322C472.042 227.745 471.77 227.633 471.572 227.433C471.371 227.233 471.26 226.962 471.26 226.679C471.26 226.397 471.371 226.126 471.572 225.926C471.77 225.726 472.042 225.614 472.322 225.614H490.239C490.524 225.614 490.792 225.726 490.989 225.926C491.191 226.126 491.301 226.397 491.301 226.679C491.301 226.962 491.191 227.233 490.989 227.433C490.792 227.633 490.524 227.745 490.239 227.745Z" fill="#E48544"/>
<path d="M470.968 236.269H489.249C490.374 236.269 491.455 235.82 492.253 235.021C493.046 234.222 493.496 233.138 493.496 232.008C493.496 230.877 493.046 229.793 492.253 228.994C491.455 228.194 490.374 227.745 489.249 227.745H470.968C469.843 227.745 468.762 228.194 467.965 228.994C467.167 229.793 466.721 230.877 466.721 232.008C466.721 233.138 467.167 234.222 467.965 235.021C468.762 235.82 469.843 236.269 470.968 236.269Z" fill="#FDB47E"/>
<path d="M338.577 252.19L338.587 252.198C338.496 251.858 338.495 251.864 338.577 252.19Z" fill="#E48544"/>
<path d="M294.448 55.303C303 65.7756 307.388 79.0526 306.765 92.577C306.765 92.577 305.019 98.9086 303.92 101.626C302.799 104.397 301.443 123.184 300.435 129.014C300.005 131.497 282.435 169.601 275.494 169.29C251.024 168.191 222.368 138.394 223.119 121.554C223.119 121.554 222.053 125.495 218.78 125.348C212.725 125.076 205.611 103.769 205.893 97.4599C206.214 90.2577 209.492 88.2103 211.943 88.3204C224.522 88.8851 224.172 98.0527 224.172 98.0527C224.019 101.487 235.459 88.835 237.273 80.3936C281.221 85.3771 286.472 80.3719 294.448 55.303Z" fill="#FDB47E"/>
<path d="M264.555 136.15C267.061 140.944 270.857 143.918 275.218 144.113C279.541 144.307 283.555 141.736 286.471 137.255" fill="white"/>
<path d="M208.512 100.593C208.504 99.7026 208.605 98.8151 208.812 97.9492C209.062 96.8991 209.545 95.9188 210.224 95.081C210.666 94.5423 211.212 94.0979 211.829 93.7751C212.446 93.4519 213.121 93.2565 213.815 93.2005C215.147 93.1255 216.461 93.5367 217.516 94.3576C218.371 95.0269 219.066 95.8805 219.547 96.8557C219.979 97.7128 220.268 98.6343 220.404 99.585C220.534 100.464 220.564 101.355 220.496 102.241C220.406 103.144 220.198 104.031 219.876 104.878C219.332 106.227 218.711 107.543 218.018 108.821C217.476 109.8 217.112 110.868 216.942 111.976C216.872 112.986 217.162 113.988 217.761 114.802C218.503 115.817 219.386 116.719 220.384 117.481L220.397 117.491C220.599 117.655 220.734 117.888 220.778 118.145C220.821 118.402 220.77 118.666 220.633 118.888C220.497 119.11 220.284 119.275 220.036 119.351C219.788 119.427 219.52 119.41 219.283 119.303C217.879 118.683 216.591 117.829 215.472 116.776C214.856 116.172 214.341 115.471 213.948 114.702C213.531 113.878 213.282 112.978 213.216 112.057C213.152 110.388 213.437 108.724 214.051 107.172C214.537 105.766 215.074 104.513 215.355 103.419C215.486 102.953 215.552 102.471 215.55 101.986C215.55 101.485 215.496 100.986 215.389 100.497C215.269 99.7658 214.901 99.0992 214.347 98.6098C214.174 98.4824 214.106 98.5092 214.189 98.5104C214.277 98.5175 214.339 98.4113 214.216 98.5297C214.017 98.7713 213.87 99.0515 213.784 99.3522C213.632 99.8289 213.525 100.319 213.464 100.816L213.446 100.944C213.358 101.567 213.037 102.134 212.549 102.529C212.061 102.925 211.442 103.12 210.816 103.076C210.19 103.031 209.605 102.75 209.177 102.29C208.75 101.829 208.512 101.222 208.512 100.593Z" fill="#E48544"/>
<path d="M274.395 101.369C274.237 101.369 274.081 101.334 273.938 101.266C273.795 101.198 273.67 101.1 273.57 100.977C271.822 99.029 269.389 97.8371 266.783 97.6517C262.397 97.4508 256.678 100.399 256.62 100.428C256.371 100.555 256.082 100.578 255.816 100.492C255.55 100.406 255.329 100.218 255.2 99.9698C255.071 99.7216 255.044 99.4319 255.126 99.1639C255.208 98.8964 255.392 98.6718 255.639 98.5388C255.893 98.4058 261.913 95.2838 266.878 95.523C268.47 95.622 270.026 96.036 271.458 96.7412C272.889 97.4468 274.167 98.4291 275.218 99.6328C275.345 99.789 275.424 99.9781 275.448 100.178C275.472 100.377 275.439 100.58 275.352 100.762C275.266 100.943 275.13 101.097 274.961 101.205C274.791 101.312 274.595 101.369 274.395 101.369Z" fill="#3D2E2C"/>
<path d="M270.037 100.109C270.007 100.776 269.781 101.42 269.386 101.958C268.991 102.496 268.446 102.904 267.82 103.131C267.193 103.358 266.514 103.393 265.867 103.233C265.221 103.072 264.637 102.722 264.189 102.228C263.741 101.733 263.449 101.117 263.351 100.456C263.252 99.795 263.352 99.1198 263.636 98.5156C263.921 97.9118 264.378 97.4058 264.95 97.0629C265.521 96.7195 266.181 96.5546 266.846 96.5881C267.734 96.6327 268.568 97.0285 269.166 97.688C269.763 98.3478 270.077 99.218 270.037 100.109Z" fill="#3D2E2C"/>
<path d="M288.094 101.983C287.872 101.983 287.656 101.914 287.476 101.785C287.295 101.655 287.16 101.473 287.088 101.263C287.016 101.052 287.012 100.825 287.076 100.612C287.139 100.399 287.267 100.211 287.442 100.075C287.623 99.9344 291.936 96.6186 296.998 96.8747C299.424 97.0499 301.786 97.7299 303.936 98.8712C304.182 99.0062 304.365 99.2335 304.444 99.5034C304.524 99.773 304.494 100.063 304.361 100.311C304.228 100.559 304.002 100.744 303.734 100.825C303.465 100.907 303.176 100.879 302.928 100.747C301.06 99.7583 299.009 99.1648 296.903 99.0034C292.628 98.799 288.78 101.733 288.741 101.762C288.555 101.906 288.328 101.983 288.094 101.983Z" fill="#3D2E2C"/>
<path d="M300.156 101.46C300.127 102.128 299.9 102.771 299.505 103.309C299.11 103.848 298.565 104.256 297.939 104.483C297.313 104.71 296.633 104.745 295.987 104.584C295.34 104.423 294.756 104.073 294.308 103.579C293.86 103.085 293.568 102.468 293.47 101.807C293.372 101.146 293.471 100.471 293.756 99.8673C294.041 99.2631 294.498 98.7575 295.069 98.4142C295.641 98.0712 296.301 97.9059 296.966 97.9394C297.853 97.9844 298.687 98.3799 299.285 99.0397C299.883 99.6991 300.196 100.57 300.156 101.46Z" fill="#3D2E2C"/>
<path d="M275.686 145.19C275.515 145.19 275.344 145.186 275.171 145.179C270.552 144.971 266.34 141.86 263.616 136.645C263.547 136.521 263.504 136.384 263.488 136.243C263.473 136.102 263.486 135.959 263.527 135.823C263.568 135.687 263.635 135.56 263.725 135.451C263.815 135.341 263.926 135.251 264.051 135.185C264.177 135.119 264.314 135.079 264.455 135.067C264.596 135.055 264.738 135.071 264.873 135.115C265.007 135.159 265.132 135.23 265.239 135.322C265.346 135.415 265.433 135.529 265.496 135.656C267.896 140.248 271.365 142.874 275.266 143.049C279.135 143.225 282.794 140.958 285.582 136.673C285.736 136.436 285.978 136.271 286.253 136.213C286.529 136.155 286.817 136.209 287.052 136.364C287.288 136.518 287.453 136.76 287.511 137.037C287.569 137.314 287.515 137.602 287.361 137.839C284.263 142.596 280.135 145.19 275.686 145.19Z" fill="#E48544"/>
<path d="M277.463 125.139C279.05 125.111 280.637 125.181 282.215 125.347L284.585 125.586L285.768 125.729L286.355 125.801C286.496 125.833 286.639 125.853 286.782 125.862C287.085 125.879 287.39 125.848 287.683 125.769C287.984 125.671 288.27 125.531 288.534 125.355C288.793 125.184 289.011 124.957 289.17 124.69C289.35 124.419 289.478 124.117 289.547 123.799C289.784 122.433 289.663 121.03 289.198 119.725L289.255 119.861C288.541 118.34 287.911 116.852 287.329 115.31C286.747 113.776 286.229 112.217 285.775 110.633C284.793 107.433 284.314 104.099 284.358 100.751C284.369 100.47 284.492 100.204 284.698 100.013C284.904 99.8215 285.178 99.7201 285.458 99.7303C285.739 99.741 286.004 99.8625 286.196 100.069C286.387 100.275 286.49 100.549 286.48 100.831L286.48 100.846C286.448 103.965 286.9 107.07 287.818 110.049C288.251 111.568 288.75 113.069 289.314 114.554C289.871 116.032 290.501 117.514 291.158 118.914L291.195 118.994L291.213 119.049C291.831 120.777 291.908 122.653 291.431 124.425C291.288 124.903 291.099 125.366 290.867 125.808C290.007 127.268 288.7 128.411 287.14 129.065C286.839 129.175 286.529 129.259 286.214 129.315L285.604 129.41L284.408 129.551C283.612 129.609 282.816 129.665 282.023 129.65C281.17 129.7 280.316 129.578 279.511 129.291C278.706 129.003 277.967 128.556 277.337 127.977L276.647 127.342C276.462 127.172 276.332 126.95 276.273 126.705C276.214 126.459 276.229 126.202 276.317 125.965C276.405 125.729 276.56 125.524 276.765 125.376C276.969 125.229 277.212 125.147 277.463 125.139Z" fill="#E48544"/>
<path d="M254.681 91.2538C254.456 91.2542 254.236 91.1823 254.054 91.0486C253.872 90.9152 253.737 90.7269 253.668 90.5111C253.6 90.2952 253.602 90.0635 253.674 89.8488C253.746 89.6342 253.884 89.4483 254.068 89.3177C262.43 83.3949 274.685 88.292 275.203 88.5039C275.461 88.612 275.666 88.818 275.774 89.0773C275.882 89.3366 275.883 89.6282 275.777 89.8883C275.672 90.1484 275.468 90.3564 275.211 90.4665C274.954 90.577 274.663 90.5809 274.403 90.4775C274.286 90.4305 262.697 85.8128 255.294 91.0588C255.114 91.1859 254.901 91.2542 254.681 91.2538Z" fill="#3D2E2C"/>
<path d="M306.606 92.3355C306.417 92.3359 306.231 92.285 306.068 92.1883C299.072 88.0599 288.913 91.0936 288.811 91.1243C288.542 91.2068 288.251 91.1788 288.002 91.0462C287.753 90.9136 287.567 90.6875 287.485 90.4171C287.402 90.1468 287.43 89.8552 287.563 89.6054C287.695 89.3559 287.92 89.1693 288.19 89.0864C288.643 88.9487 299.338 85.745 307.146 90.3516C307.346 90.47 307.503 90.6516 307.591 90.8682C307.679 91.0849 307.693 91.3248 307.632 91.5502C307.57 91.7759 307.437 91.9752 307.251 92.1169C307.066 92.2589 306.84 92.3355 306.606 92.3355Z" fill="#3D2E2C"/>
<path d="M262.204 17.1887C268.756 23.6754 277.702 33.8469 284.762 34.8899C295.111 36.4188 311.14 41.0599 326.677 70.917C317.721 40.5678 301.835 29.0923 287.21 31.0991C280.053 23.8348 271.476 18.6808 262.204 17.1887Z" fill="#543F3D"/>
<path d="M319.853 421.407C308.435 368.563 327.844 306.92 331.493 291.183C320.489 300.831 317.657 314.327 298.731 323.554C293.288 326.207 289.36 331.223 288.857 337.273C288.031 347.196 289.678 362.665 292.95 381.63C294.745 392.037 296.517 415.977 297.569 432.038C307.373 430.44 314.106 428.439 317.646 426.395C318.493 425.906 319.163 425.16 319.56 424.26C319.956 423.364 320.059 422.366 319.853 421.407Z" fill="#E6D8D6"/>
<path d="M394.737 103.554C418.718 103.554 438.158 84.118 438.158 60.1429C438.158 36.1678 418.718 16.7322 394.737 16.7322C370.756 16.7322 351.316 36.1678 351.316 60.1429C351.316 84.118 370.756 103.554 394.737 103.554Z" fill="#FFC905"/>
<path d="M438.158 60.1429C438.158 84.1178 418.717 103.554 394.737 103.554C387.154 103.554 361.184 105.527 355.263 107.5C350.035 109.242 364.726 91.987 361.241 87.7679C355.041 80.2622 351.316 70.6376 351.316 60.1429C351.316 36.1678 370.756 16.7322 394.737 16.7322C418.717 16.7322 438.158 36.1678 438.158 60.1429Z" fill="#FFC905"/>
<path d="M399.561 36.0258H389.912V45.6724H399.561V36.0258Z" fill="white"/>
<path d="M399.561 55.3196H389.912V84.2599H399.561V55.3196Z" fill="white"/>
</svg>
